<?xml version="1.0" standalone="no"?>
<!DOCTYPE svg PUBLIC "-//W3C//DTD SVG 20010904//EN"
 "http://www.w3.org/TR/2001/REC-SVG-20010904/DTD/svg10.dtd">
<svg version="1.0" xmlns="http://www.w3.org/2000/svg"
 width="700.000000pt" height="700.000000pt" viewBox="0 0 700.000000 700.000000"
 preserveAspectRatio="xMidYMid meet">
<metadata>
Created by potrace 1.11, written by Peter Selinger 2001-2013
</metadata>
<g transform="translate(0.000000,700.000000) scale(0.100000,-0.100000)"
fill="#000000" stroke="none">
<path d="M3215 6989 c-696 -57 -1364 -323 -1910 -759 -154 -123 -386 -352
-508 -501 -1262 -1545 -994 -3825 590 -5021 514 -387 1070 -607 1748 -690 130
-16 600 -16 730 0 575 70 1062 239 1511 525 1163 740 1784 2091 1588 3457 -91
635 -352 1227 -761 1729 -188 230 -492 506 -735 669 -388 259 -812 439 -1238
526 -340 69 -692 91 -1015 65z m-1557 -2465 c62 -13 233 -70 232 -77 0 -1 -20
-56 -44 -122 -28 -76 -49 -119 -58 -118 -7 1 -47 14 -88 29 -67 26 -88 28
-200 29 -136 0 -167 -9 -203 -56 -24 -33 -25 -100 -2 -135 21 -33 76 -65 165
-99 229 -84 340 -144 404 -215 131 -145 124 -421 -14 -558 -94 -94 -224 -134
-440 -135 -162 -1 -280 17 -390 60 -100 39 -98 33 -50 169 22 65 42 120 44
121 2 2 28 -8 59 -21 98 -44 174 -59 302 -60 74 -1 134 4 156 12 54 19 90 62
96 115 11 91 -43 141 -230 213 -269 102 -361 164 -413 279 -34 74 -42 178 -20
265 41 157 149 257 329 301 93 23 263 24 365 3z m4258 -417 l57 -53 -109 -92
c-60 -51 -111 -92 -114 -92 -3 0 -25 17 -49 38 l-45 39 94 106 c51 59 97 107
101 107 5 0 34 -24 65 -53z m-2086 -396 c0 -406 1 -419 20 -444 12 -15 36 -29
55 -33 19 -3 32 -11 30 -17 -2 -7 -9 -44 -15 -84 l-12 -72 -51 5 c-125 13
-206 68 -224 151 -4 21 -8 229 -8 463 l0 425 70 11 c39 7 85 12 103 13 l32 1
0 -419z m695 84 c33 -9 60 -17 62 -18 3 -4 -35 -148 -41 -154 -3 -3 -25 0 -50
6 -105 26 -195 2 -236 -64 -18 -29 -25 -57 -28 -115 -11 -189 97 -255 327
-198 11 2 18 -17 28 -76 8 -43 12 -80 10 -82 -2 -2 -32 -11 -68 -20 -93 -24
-237 -16 -310 18 -112 51 -168 129 -190 266 -26 156 31 311 142 388 90 62 229
81 354 49z m1428 1 c32 -7 60 -16 64 -19 3 -3 -2 -40 -12 -82 -15 -70 -18 -75
-38 -69 -97 31 -198 33 -227 4 -43 -43 -22 -68 108 -124 168 -72 203 -112 204
-230 1 -138 -86 -205 -278 -214 -103 -5 -246 17 -260 39 -9 15 18 150 31 155
6 3 31 -2 55 -11 63 -22 182 -31 219 -16 32 14 43 39 29 66 -6 9 -49 35 -97
56 -167 76 -194 98 -217 177 -34 116 17 217 132 262 60 23 201 26 287 6z
m-3283 -71 l0 -65 -106 -122 c-116 -135 -224 -274 -224 -289 0 -5 71 -9 170
-9 l170 0 0 -80 0 -80 -295 0 -295 0 0 63 c0 59 3 66 54 142 30 44 100 136
155 205 55 69 101 128 101 133 0 4 -67 7 -150 7 l-150 0 0 80 0 80 285 0 285
0 0 -65z m340 -142 c1 -221 9 -285 42 -320 24 -26 82 -37 138 -28 l40 7 0 274
0 274 100 0 100 0 0 -344 0 -344 -42 -10 c-86 -21 -225 -34 -303 -28 -134 10
-211 61 -252 167 -14 36 -17 90 -21 302 l-4 257 101 0 101 0 0 -207z m1922
-21 c4 -199 6 -232 24 -267 24 -50 76 -72 147 -61 l47 7 0 275 0 274 100 0
100 0 0 -344 0 -344 -42 -10 c-83 -21 -224 -34 -293 -29 -106 9 -145 24 -196
76 -73 73 -81 109 -87 404 l-4 247 100 0 99 0 5 -228z m1277 -707 c8 -8 14
-28 14 -46 0 -44 -32 -69 -89 -69 -38 0 -572 -26 -3099 -150 -335 -16 -844
-41 -1130 -55 -286 -14 -641 -32 -790 -39 -287 -15 -311 -12 -321 30 -9 34 -1
55 26 75 22 15 148 23 1190 74 1073 51 2151 104 3205 155 231 12 533 27 670
34 266 15 302 14 324 -9z"/>
</g>
</svg>
