<svg id="Capa_1" enable-background="new 0 0 512 512" height="512" viewBox="0 0 512 512" width="512" xmlns="http://www.w3.org/2000/svg"><g><path d="m256 0-256 211h61v301h195 195v-301h61z" fill="#66b3ff"/><path d="m451 211h61l-256-211v512h195z" fill="#4d88ff"/><path d="m256 346h-105v60c0 31.084 52.734 45 105 45s105-13.916 105-45v-60z" fill="#cce6ff"/><path d="m361 406v-60h-105v105c52.266 0 105-13.916 105-45z" fill="#b3ccff"/><path d="m256 286h-105v60c0 31.084 52.734 45 105 45s105-13.916 105-45v-60z" fill="#e6f7ff"/><path d="m361 346v-60h-105v105c52.266 0 105-13.916 105-45z" fill="#cce6ff"/><path d="m256 226h-105v60c0 31.084 52.734 45 105 45s105-13.916 105-45v-60z" fill="#cce6ff"/><path d="m361 286v-60h-105v105c52.266 0 105-13.916 105-45z" fill="#b3ccff"/><ellipse cx="256" cy="226" fill="#e6f7ff" rx="105" ry="45"/><path d="m361 226c0-31.084-52.734-45-105-45v90c52.266 0 105-13.916 105-45z" fill="#cce6ff"/></g></svg>