<svg id="Capa_1" enable-background="new 0 0 512 512" height="512" viewBox="0 0 512 512" width="512" xmlns="http://www.w3.org/2000/svg"><g><path d="m377 0v30h85.371l-97.976 97.977 9.814 9.814 11.396 11.397 96.395-96.395v82.207h30v-135z" fill="#66b3ff"/><path d="m482 52.793v82.207h30v-135l-137.791 137.791 11.396 11.397z" fill="#4d88ff"/><path d="m15 122h375v375h-375z" fill="#66b3ff"/><path d="m390 122-375 375h375z" fill="#4d88ff"/><path d="m30 482v-482h-30v512h512v-30z" fill="#474f54"/><path d="m512 482h-482l-30 30h512z" fill="#32393f"/><path d="m165 347h-75v60c0 4.318 1.219 8.225 3.111 11.889 11.73 22.714 56.882 33.111 101.889 33.111 52.266 0 105-13.916 105-45v-60z" fill="#cce6ff"/><path d="m195 452c52.266 0 105-13.916 105-45v-60h-135l-71.889 71.889c11.73 22.714 56.882 33.111 101.889 33.111z" fill="#b3ccff"/><path d="m225 287h-135v60c0 17.032 16.088 28.74 39.001 35.999 18.904 5.987 42.373 9.001 65.999 9.001 52.266 0 105-13.916 105-45v-60z" fill="#e6f7ff"/><path d="m300 347v-60h-75l-95.999 95.999c18.904 5.987 42.373 9.001 65.999 9.001 52.266 0 105-13.916 105-45z" fill="#cce6ff"/><path d="m285 227h-195v60c0 28.195 43.422 42.14 90.491 44.509 4.823.244 9.651.491 14.509.491 52.266 0 105-13.916 105-45v-60z" fill="#cce6ff"/><path d="m300 287v-60h-15l-104.509 104.509c4.823.244 9.651.491 14.509.491 52.266 0 105-13.916 105-45z" fill="#b3ccff"/><path d="m296.889 215.111c-11.73-22.714-56.882-33.111-101.889-33.111-52.266 0-105 13.916-105 45s52.734 45 105 45c17.256 0 34.385-1.677 49.828-4.828 31.333-6.393 55.172-19.351 55.172-40.172 0-4.318-1.219-8.225-3.111-11.889z" fill="#e6f7ff"/><path d="m300 227c0-4.318-1.219-8.225-3.111-11.889l-52.061 52.061c31.333-6.393 55.172-19.351 55.172-40.172z" fill="#cce6ff"/></g></svg>