<svg xmlns="http://www.w3.org/2000/svg" xmlns:xlink="http://www.w3.org/1999/xlink" width="512" height="512" viewBox="0 0 512 512">
  <defs>
    <clipPath id="clip-express">
      <rect width="512" height="512"/>
    </clipPath>
  </defs>
  <g id="express" clip-path="url(#clip-express)">
    <rect id="Rectangle_1" data-name="Rectangle 1" width="512" height="256" transform="translate(0 128)" fill="#fff"/>
    <path id="express-109" d="M2.787,96.7V49.049h59.5V46.261H2.787V2.787H66.048V0H0V99.49H66.6V96.7H2.787ZM120.252,27.868,95.589,60.335,71.482,27.869H67.859L93.916,62.426,65.35,99.489h3.344L95.587,64.514,122.62,99.489H126.1L97.4,62.424l26.2-34.557h-3.344Zm14.212,96.146V79.425h.278A28.617,28.617,0,0,0,144.637,95.1q7.385,5.921,18.811,5.922a27.224,27.224,0,0,0,22.643-11.147,37.944,37.944,0,0,0,5.853-11.984,50.333,50.333,0,0,0,2.021-14.351,50.736,50.736,0,0,0-2.091-14.91,35.69,35.69,0,0,0-6.061-11.844,27.861,27.861,0,0,0-9.615-7.8,28.4,28.4,0,0,0-12.75-2.787,30.923,30.923,0,0,0-10.1,1.6,27.042,27.042,0,0,0-8.29,4.529,30.671,30.671,0,0,0-6.271,6.9,31.763,31.763,0,0,0-4.041,8.709h-.278V27.868h-2.787v96.146h2.787Zm28.983-25.639q-13.1,0-21.04-8.987T134.465,63.54A44.307,44.307,0,0,1,136.416,50.3a34.283,34.283,0,0,1,5.643-11.008,27.1,27.1,0,0,1,9.127-7.524,26.478,26.478,0,0,1,12.262-2.787A25.528,25.528,0,0,1,175.64,31.77a24.714,24.714,0,0,1,8.639,7.594,35.36,35.36,0,0,1,5.156,11.008,48.5,48.5,0,0,1,1.741,13.168,49.628,49.628,0,0,1-1.6,12.471,35.651,35.651,0,0,1-4.947,11.148,26.924,26.924,0,0,1-8.569,8.081,24.08,24.08,0,0,1-12.611,3.135Zm45.844,1.115V58.941a39.516,39.516,0,0,1,1.673-11.426,27.982,27.982,0,0,1,5.155-9.823A24.16,24.16,0,0,1,224.967,31a26.855,26.855,0,0,1,12.75-2.021V26.2A34.524,34.524,0,0,0,226.5,27.589a27.24,27.24,0,0,0-8.291,4.181,21.355,21.355,0,0,0-5.573,6.2,27.725,27.725,0,0,0-3.066,7.594h-.279v-17.7H206.5V99.491h2.787ZM241.2,64.236h59.917a49.592,49.592,0,0,0-1.463-14.212A35.349,35.349,0,0,0,294.081,37.9a28.377,28.377,0,0,0-9.894-8.5,30.457,30.457,0,0,0-14.422-3.2,29.328,29.328,0,0,0-21.738,9.823,37.12,37.12,0,0,0-6.967,11.775,44.5,44.5,0,0,0-2.648,15.884,58.258,58.258,0,0,0,1.811,14.84A34.767,34.767,0,0,0,245.8,90.5a25.153,25.153,0,0,0,9.685,7.872,32.043,32.043,0,0,0,14.283,2.648q12.261,0,20.622-6.9t9.894-19.439h-2.787q-1.811,11.845-9.266,17.766t-18.742,5.922a28.772,28.772,0,0,1-12.959-2.647,23.479,23.479,0,0,1-8.639-7.246,31.6,31.6,0,0,1-4.946-10.8A58.089,58.089,0,0,1,241.2,64.236Zm57.13-2.787H241.2a43.077,43.077,0,0,1,2.786-13.516,33.506,33.506,0,0,1,6.2-10.242,25.916,25.916,0,0,1,8.918-6.48,26.944,26.944,0,0,1,10.938-2.23,27.692,27.692,0,0,1,12.262,2.578,25.331,25.331,0,0,1,8.848,7.037,31.035,31.035,0,0,1,5.364,10.38A42.4,42.4,0,0,1,298.33,61.45Zm60.614-12.4h2.787q0-11.984-6.967-17.418T335.813,26.2a33.24,33.24,0,0,0-11.287,1.673A22.566,22.566,0,0,0,317,32.188a15.547,15.547,0,0,0-4.18,5.853,16.812,16.812,0,0,0-1.254,6.131q0,5.852,2.091,9.336a13.754,13.754,0,0,0,6.548,5.434,50.437,50.437,0,0,0,6.967,2.509q3.9,1.114,9.057,2.368,4.6,1.116,9.057,2.23a32.718,32.718,0,0,1,7.872,3,17.017,17.017,0,0,1,5.574,4.808,12.594,12.594,0,0,1,2.159,7.663,13.633,13.633,0,0,1-2.159,7.8,17.408,17.408,0,0,1-5.5,5.226,24.514,24.514,0,0,1-7.455,2.925,37.183,37.183,0,0,1-8.012.906q-12.68,0-19.439-5.643t-6.757-17.767h-2.787q0,13.517,7.315,19.787t21.668,6.27a42.322,42.322,0,0,0,9.266-1.045,25.75,25.75,0,0,0,8.36-3.414,18.894,18.894,0,0,0,5.991-6.13,17.325,17.325,0,0,0,2.3-9.2,15.479,15.479,0,0,0-2.021-8.361,16.951,16.951,0,0,0-5.3-5.295,28.083,28.083,0,0,0-7.385-3.274q-4.134-1.191-8.291-2.3-5.116-1.342-10.242-2.647a62.167,62.167,0,0,1-8.151-2.648,13.83,13.83,0,0,1-5.783-4.389q-2.16-2.856-2.159-8.152a19.2,19.2,0,0,1,.557-3.483A12.494,12.494,0,0,1,317.56,35.6a17.826,17.826,0,0,1,6.41-4.6q4.319-2.02,11.844-2.021a37.072,37.072,0,0,1,9.405,1.115,19.554,19.554,0,0,1,7.315,3.554,16.169,16.169,0,0,1,4.738,6.2,22.6,22.6,0,0,1,1.673,9.2Zm64.515,0h2.787q0-11.984-6.967-17.418T400.328,26.2a33.235,33.235,0,0,0-11.286,1.673,22.55,22.55,0,0,0-7.524,4.319,15.54,15.54,0,0,0-4.181,5.853,16.81,16.81,0,0,0-1.254,6.131q0,5.852,2.091,9.336a13.75,13.75,0,0,0,6.548,5.434,50.465,50.465,0,0,0,6.967,2.509q3.9,1.114,9.057,2.368,4.6,1.116,9.057,2.23a32.725,32.725,0,0,1,7.873,3,17.015,17.015,0,0,1,5.573,4.808,12.589,12.589,0,0,1,2.16,7.663,13.634,13.634,0,0,1-2.16,7.8,17.408,17.408,0,0,1-5.5,5.226,24.517,24.517,0,0,1-7.456,2.925,37.177,37.177,0,0,1-8.012.906q-12.68,0-19.438-5.643t-6.758-17.767H373.3q0,13.517,7.315,19.787t21.667,6.27a42.311,42.311,0,0,0,9.266-1.045,25.762,25.762,0,0,0,8.361-3.414,18.894,18.894,0,0,0,5.991-6.13,17.325,17.325,0,0,0,2.3-9.2,15.472,15.472,0,0,0-2.021-8.361,16.939,16.939,0,0,0-5.295-5.295,28.1,28.1,0,0,0-7.385-3.274q-4.134-1.191-8.291-2.3-5.116-1.342-10.241-2.647a62.153,62.153,0,0,1-8.152-2.648,13.821,13.821,0,0,1-5.782-4.389q-2.16-2.856-2.16-8.152a19.15,19.15,0,0,1,.558-3.483,12.5,12.5,0,0,1,2.647-5.087,17.833,17.833,0,0,1,6.41-4.6q4.32-2.02,11.845-2.021a37.071,37.071,0,0,1,9.405,1.115,19.56,19.56,0,0,1,7.315,3.554,16.169,16.169,0,0,1,4.738,6.2,22.6,22.6,0,0,1,1.673,9.2Z" transform="translate(41.803 194.271)" fill="#222"/>
  </g>
</svg>
