<svg id="Capa_1" enable-background="new 0 0 512 512" height="512" viewBox="0 0 512 512" width="512" xmlns="http://www.w3.org/2000/svg"><g><path d="m91 151h-30v-15c0-41.353 33.647-75 75-75h15v30h-15c-24.814 0-45 20.186-45 45z" fill="#66b3ff"/><path d="m451 151h-30v-15c0-24.814-20.186-45-45-45h-15v-30h15c41.353 0 75 33.647 75 75z" fill="#4d88ff"/><path d="m151 481h-15c-41.353 0-75-33.647-75-75v-15h30v15c0 24.814 20.186 45 45 45h15z" fill="#66b3ff"/><path d="m376 481h-15v-30h15c24.814 0 45-20.186 45-45v-15h30v15c0 41.353-33.647 75-75 75z" fill="#4d88ff"/><path d="m256 91c24.814 0 45-20.186 45-45s-20.186-46-45-46-45 21.186-45 46 20.186 45 45 45z" fill="#e6f7ff"/><circle cx="256" cy="376" fill="#e6f7ff" r="45"/><g fill="#cce6ff"><path d="m301 46c0-24.814-20.186-46-45-46v91c24.814 0 45-20.186 45-45z"/><path d="m301 376c0-24.814-20.186-45-45-45v90c24.814 0 45-20.186 45-45z"/><path d="m256 91c-41.353 0-75 33.647-75 75v15h75 75v-15c0-41.353-33.647-75-75-75z"/><path d="m256 421c-41.353 0-75 33.647-75 75v16h75 75v-16c0-41.353-33.647-75-75-75z"/></g><path d="m331 166c0-41.353-33.647-75-75-75v90h75z" fill="#b3ccff"/><path d="m331 496c0-41.353-33.647-75-75-75v91h75z" fill="#b3ccff"/><circle cx="76" cy="226" fill="#e6f7ff" r="45"/><path d="m121 226c0-24.814-20.186-45-45-45v90c24.814 0 45-20.186 45-45z" fill="#cce6ff"/><path d="m76 271c-41.353 0-76 33.647-76 75v15h76 75v-15c0-41.353-33.647-75-75-75z" fill="#cce6ff"/><path d="m151 346c0-41.353-33.647-75-75-75v90h75z" fill="#b3ccff"/><circle cx="436" cy="226" fill="#e6f7ff" r="45"/><path d="m481 226c0-24.814-20.186-45-45-45v90c24.814 0 45-20.186 45-45z" fill="#cce6ff"/><path d="m436 271c-41.353 0-75 33.647-75 75v15h75 76v-15c0-41.353-34.647-75-76-75z" fill="#cce6ff"/><path d="m512 346c0-41.353-34.647-75-76-75v90h76z" fill="#b3ccff"/></g></svg>