<svg id="Capa_1" enable-background="new 0 0 512 512" height="512" viewBox="0 0 512 512" width="512" xmlns="http://www.w3.org/2000/svg"><g><path d="m279.699 482h-188.699v-106h30v76h158.699z" fill="#66b3ff"/><g><path d="m421 30v106h-30v-76h-128.699v-30z" fill="#4d88ff"/></g><path d="m262.301 0-21.301 21.301 8.699 8.699h-158.699v106h30v-76h128.699l-8.699 8.699 21.301 21.301 45-45z" fill="#66b3ff"/><path d="m421 376h-30v76h-98.699l8.699-8.699-21.301-21.301-45 45 45 45 21.301-21.301-8.699-8.699h128.699z" fill="#4d88ff"/><path d="m106 286h-106v60c0 31.084 53.734 45 106 45s105-13.916 105-45v-60z" fill="#cce6ff"/><path d="m211 346v-60h-105v105c52.266 0 105-13.916 105-45z" fill="#b3ccff"/><path d="m106 226h-106v60c0 31.084 53.734 45 106 45s105-13.916 105-45v-60z" fill="#e6f7ff"/><path d="m211 286v-60h-105v105c52.266 0 105-13.916 105-45z" fill="#cce6ff"/><path d="m106 166h-106v60c0 31.084 53.734 45 106 45s105-13.916 105-45v-60z" fill="#cce6ff"/><path d="m211 226v-60h-105v105c52.266 0 105-13.916 105-45z" fill="#b3ccff"/><path d="m106 121c-52.266 0-106 13.916-106 45s53.734 45 106 45 105-13.916 105-45-52.734-45-105-45z" fill="#e6f7ff"/><path d="m211 166c0-31.084-52.734-45-105-45v90c52.266 0 105-13.916 105-45z" fill="#cce6ff"/><path d="m406 286h-105v60c0 31.084 52.734 45 105 45s106-13.916 106-45v-60z" fill="#cce6ff"/><path d="m512 346v-60h-106v105c52.266 0 106-13.916 106-45z" fill="#b3ccff"/><path d="m406 226h-105v60c0 31.084 52.734 45 105 45s106-13.916 106-45v-60z" fill="#e6f7ff"/><path d="m512 286v-60h-106v105c52.266 0 106-13.916 106-45z" fill="#cce6ff"/><path d="m406 166h-105v60c0 31.084 52.734 45 105 45s106-13.916 106-45v-60z" fill="#cce6ff"/><path d="m512 226v-60h-106v105c52.266 0 106-13.916 106-45z" fill="#b3ccff"/><path d="m406 121c-52.266 0-105 13.916-105 45s52.734 45 105 45 106-13.916 106-45-53.734-45-106-45z" fill="#e6f7ff"/><path d="m512 166c0-31.084-53.734-45-106-45v90c52.266 0 106-13.916 106-45z" fill="#cce6ff"/></g></svg>