<svg xmlns="http://www.w3.org/2000/svg" width="440" height="500" viewBox="0 0 440 500">
  <g id="html" transform="translate(-0.445 -70.766)">
    <path id="Path_12" data-name="Path 12" d="M440.445,70.766,400.36,520.714,220.176,570.766,40.488,520.784.445,70.766h440Z" transform="translate(0 0)" fill="#e44d26"/>
    <path id="Path_13" data-name="Path 13" d="M128,516.724l146.431-40.418L308.88,92.057H128Z" transform="translate(92.187 20.641)" fill="#f16529"/>
    <path id="Path_14" data-name="Path 14" d="M108.46,179.393h78.37V124H47.917l1.325,14.862L62.859,291.52H186.83v-55.4H113.523ZM120.946,319.22H65.334L73.095,406.2l113.48,31.5.255-.069V380l-.243.064L124.89,363.4l-3.945-44.182Z" transform="translate(34.191 38.189)" fill="#ebebeb"/>
    <path id="Path_16" data-name="Path 16" d="M127.891,291.52h68.217l-6.432,71.848-61.787,16.677v57.634L241.459,406.2l.833-9.36L255.312,251l1.351-14.876H127.891v55.4Zm0-112.262v.135H261.7l1.11-12.451,2.526-28.085L266.663,124H127.891V179.26Z" transform="translate(91.79 38.189)" fill="#fff"/>
  </g>
</svg>
