<svg xmlns="http://www.w3.org/2000/svg" xmlns:xlink="http://www.w3.org/1999/xlink" width="15707.529" height="15649.957" viewBox="0 0 15707.529 15649.957">
  <defs>
    <linearGradient id="linear-gradient" x1="0.5" y1="0.779" x2="0.5" y2="0.19" gradientUnits="objectBoundingBox">
      <stop offset="0" stop-color="#1776b8"/>
      <stop offset="1" stop-color="#31baec"/>
    </linearGradient>
    <linearGradient id="linear-gradient-2" x1="0.5" y1="0.779" x2="0.5" y2="0.19" gradientUnits="objectBoundingBox">
      <stop offset="0" stop-color="#036dfd"/>
      <stop offset="0.502" stop-color="#0192ff"/>
      <stop offset="1" stop-color="#00b6f8"/>
    </linearGradient>
  </defs>
  <g id="_3014658652848" transform="translate(-6116.217 -2970.022)">
    <path id="Path_1" data-name="Path 1" d="M14018.2,2970.08c-4415.11,14.6-8204.75,3207.61-7882.87,7843.75,92.35,1329.17,250.52,2315.53,1011.79,3607.37,389.22,660.5,743.75,1081.85,1300,1600.1,118.54,110.46,237.65,237.52,300.37,391.751,67.52,166.07,77.51,653.359,81.98,990.93,5.2,394.039-84.14,825.43,271.65,1096.311,375.5,285.98,773.87-10.58,1155.57-164.32,295.17-126.6,843.06-411.449,1121.66-482.82,131.4-33.67,245.25-17.381,472.06,38.84,779.91,161.49,1347.62,247.18,2160.021,254.16,1192.41,10.221,2246.66-209.3,3344.279-683.35,2782.15-1371.14,4355.461-3586.689,4463.08-6665.98,163.961-4693.95-3073.82-7842.37-7799.59-7826.74Z" fill-rule="evenodd" fill="url(#linear-gradient)"/>
    <path id="Path_2" data-name="Path 2" d="M14018.2,2970.08c-4415.11,14.6-8204.75,3207.61-7882.87,7843.75,92.35,1329.17,250.52,2315.53,1011.79,3607.37,389.22,660.5,743.75,1081.85,1300,1600.1,118.54,110.46,237.65,237.52,300.37,391.751,67.52,166.07,77.51,653.359,81.98,990.93,5.2,394.039-84.14,825.43,271.65,1096.311,375.5,285.98,773.87-10.58,1155.57-164.32,295.17-126.6,843.06-411.449,1121.66-482.82,131.4-33.67,245.25-17.381,472.06,38.84,779.91,161.49,1347.62,247.18,2160.021,254.16,1192.41,10.221,2246.66-209.3,3344.279-683.35,2782.15-1371.14,4355.461-3586.689,4463.08-6665.98,163.961-4693.95-3073.82-7842.37-7799.59-7826.74Z" fill-rule="evenodd" fill="url(#linear-gradient-2)"/>
    <path id="Path_3" data-name="Path 3" d="M15416.3,10286.8c-238.31,0-392.58-172.3-562.37-298.59l-1414.57-1063.32c-311.68-233.82-463.33-339.01-920.93-339.01-354.41,0-647.66,191.04-855.23,446.7-37.58,46.27-70.59,113.04-106.46,166.53-37.17,55.43-62.45,93.64-101,150.99l-511.29,811.66c-33.86,56.34-57.02,96.34-93.88,158.11l-608.88,966.04c-234.13,382.27-496.17,742.46-712.02,1135.9-90.42,164.8-294.74,356.64-303.42,550-4.86,108.11,35.04,210.23,115.16,282.02,156.56,140.3,352.18,124.38,500.84,5.54,67.33-53.83,118.21-79.54,182.29-132.7,63.7-52.85,111.02-88.21,179.97-135l937.12-721.83c3.37-2.75,8.18-6.67,11.63-9.36l1183.92-894.99c268.75-171.17,465.54-21.21,660.96,121.53l1524.18,1142.7c406.63,304,896.39,574.6,1483.36,220.37,263.5-159.02,430.2-388.23,580.09-658.86,52.939-95.59,102.77-157.04,154.891-244.08l1111.75-1765.13c53.529-80.39,96.08-162.99,150.8-248.17l551.25-876.7c82.369-122.82,197.09-252.44,227.76-402.71,61.369-300.68-292.631-563.82-606.35-332.86l-144.49,107.5c-3.369,2.76-8.09,6.78-11.42,9.58l-22.49,19.5c-63.4,53.81-115.91,81.24-180.961,134.04-507.51,411.89-1058.6,771.1-1560.01,1190.85l-408.2,305.78C15719.859,10185.1,15631.46,10286.8,15416.3,10286.8Z" fill="#fff" fill-rule="evenodd"/>
  </g>
</svg>
