<svg xmlns="http://www.w3.org/2000/svg" xmlns:xlink="http://www.w3.org/1999/xlink" width="512" height="512" viewBox="0 0 512 512">
  <defs>
    <clipPath id="clip-noBootstrap">
      <rect width="512" height="512"/>
    </clipPath>
  </defs>
  <g id="noBootstrap" clip-path="url(#clip-noBootstrap)">
    <g id="Path_14" data-name="Path 14" fill="#fff">
      <path d="M 256 497 C 123.1121520996094 497 15 388.8878479003906 15 256 C 15 123.1121520996094 123.1121520996094 15 256 15 C 388.8878479003906 15 497 123.1121520996094 497 256 C 497 388.8878479003906 388.8878479003906 497 256 497 Z" stroke="none"/>
      <path d="M 256 30 C 131.3832092285156 30 30 131.3832092285156 30 256 C 30 380.6168212890625 131.3832092285156 482 256 482 C 380.6168212890625 482 482 380.6168212890625 482 256 C 482 131.3832092285156 380.6168212890625 30 256 30 M 256 0 C 397.3848876953125 0 512 114.6151123046875 512 256 C 512 397.3848876953125 397.3848876953125 512 256 512 C 114.6151123046875 512 0 397.3848876953125 0 256 C 0 114.6151123046875 114.6151123046875 0 256 0 Z" stroke="none" fill="#b22222"/>
    </g>
    <g id="bootstrap-4" transform="translate(105.231 105.231)">
      <path id="Path_1" data-name="Path 1" d="M0,261.988a38.781,38.781,0,0,0,38.782,38.782h223.2a38.781,38.781,0,0,0,38.783-38.782V38.783A38.781,38.781,0,0,0,261.988,0H38.783A38.781,38.781,0,0,0,0,38.782v223.2Z" fill="#563d7c"/>
      <path id="Path_2" data-name="Path 2" d="M112.118,124.21V81.617H149.61a58.318,58.318,0,0,1,10.33.893,25.782,25.782,0,0,1,8.8,3.187,17,17,0,0,1,6.121,6.376,21.175,21.175,0,0,1,2.3,10.456q0,11.478-6.887,16.579t-17.6,5.1ZM72.075,50.5V232.606h88.248a93.107,93.107,0,0,0,23.848-3.061,63.78,63.78,0,0,0,20.659-9.437,46.484,46.484,0,0,0,14.41-16.451q5.357-10.075,5.356-23.848,0-17.089-8.289-29.2t-25.124-16.962q12.243-5.865,18.493-15.048t6.248-22.955q0-12.752-4.208-21.424a35,35,0,0,0-11.86-13.9A51.188,51.188,0,0,0,181.492,52.8a113.371,113.371,0,0,0-23.72-2.3Zm40.043,150.99V151.5h43.613q13.008,0,20.915,5.994t7.907,20.021a25.028,25.028,0,0,1-2.424,11.732,19.246,19.246,0,0,1-6.5,7.269,27.543,27.543,0,0,1-9.437,3.827,53.544,53.544,0,0,1-11.222,1.147H112.118Z" transform="translate(12.604 8.831)" fill="#fff"/>
    </g>
    <line id="Line_1" data-name="Line 1" x1="339" y2="339" transform="translate(86.5 87.5)" fill="none" stroke="#b22222" stroke-linecap="round" stroke-width="30"/>
  </g>
</svg>
