<svg xmlns="http://www.w3.org/2000/svg" xmlns:xlink="http://www.w3.org/1999/xlink" width="512" height="512" viewBox="0 0 512 512">
  <defs>
    <clipPath id="clip-path">
      <path id="Path_13" data-name="Path 13" d="M0,0H147.415V147.416H0Z"/>
    </clipPath>
    <clipPath id="clip-noGenerators">
      <rect width="512" height="512"/>
    </clipPath>
  </defs>
  <g id="noGenerators" clip-path="url(#clip-noGenerators)">
    <g id="Path_14" data-name="Path 14" fill="#fff">
      <path d="M 256 497 C 123.1121520996094 497 15 388.8878479003906 15 256 C 15 123.1121520996094 123.1121520996094 15 256 15 C 388.8878479003906 15 497 123.1121520996094 497 256 C 497 388.8878479003906 388.8878479003906 497 256 497 Z" stroke="none"/>
      <path d="M 256 30 C 131.3832092285156 30 30 131.3832092285156 30 256 C 30 380.6168212890625 131.3832092285156 482 256 482 C 380.6168212890625 482 482 380.6168212890625 482 256 C 482 131.3832092285156 380.6168212890625 30 256 30 M 256 0 C 397.3848876953125 0 512 114.6151123046875 512 256 C 512 397.3848876953125 397.3848876953125 512 256 512 C 114.6151123046875 512 0 397.3848876953125 0 256 C 0 114.6151123046875 114.6151123046875 0 256 0 Z" stroke="none" fill="#b22222"/>
    </g>
    <g id="bootstrap-4" transform="translate(248.101 121.101)">
      <path id="Path_1" data-name="Path 1" d="M0,168.9a25,25,0,0,0,25,25H168.9a25,25,0,0,0,25-25V25a25,25,0,0,0-25-25H25A25,25,0,0,0,0,25V168.9Z" fill="#563d7c"/>
      <path id="Path_2" data-name="Path 2" d="M97.89,98.019V70.56h24.17a37.6,37.6,0,0,1,6.659.576,16.621,16.621,0,0,1,5.673,2.055,10.961,10.961,0,0,1,3.946,4.111,13.651,13.651,0,0,1,1.48,6.741q0,7.4-4.44,10.688t-11.345,3.289ZM72.075,50.5V167.9h56.891a60.024,60.024,0,0,0,15.374-1.973,41.118,41.118,0,0,0,13.318-6.084,29.967,29.967,0,0,0,9.29-10.605,32.305,32.305,0,0,0,3.453-15.374q0-11.017-5.344-18.826t-16.2-10.935a29.261,29.261,0,0,0,11.922-9.7q4.028-5.919,4.028-14.8A31.491,31.491,0,0,0,162.1,65.792a22.563,22.563,0,0,0-7.646-8.961,33,33,0,0,0-11.838-4.851,73.088,73.088,0,0,0-15.292-1.48ZM97.89,147.84V115.612h28.116q8.386,0,13.484,3.864t5.1,12.907a16.135,16.135,0,0,1-1.563,7.564,12.408,12.408,0,0,1-4.193,4.686,17.757,17.757,0,0,1-6.084,2.467,34.519,34.519,0,0,1-7.235.739H97.89Z" transform="translate(-17.484 -12.25)" fill="#fff"/>
    </g>
    <g id="jquery-1" transform="translate(138.706 349.483)">
      <path id="Path_3" data-name="Path 3" d="M462.635,8.646l10.6.058s-19.708,26.706-21.318,28.883a12.418,12.418,0,0,0-1.719,2.407,53.779,53.779,0,0,0-2.063,7.564l-9.7.049s1.509-5.416,1.447-8.3c-.054-2.52-1.341-5.037-2.063-7.564-.729-2.559-1.72-7.565-1.72-7.565h9.972l1.375,5.5L462.635,8.646" transform="translate(-219.785 -4.328)" fill="#1a1918" fill-rule="evenodd"/>
      <path id="Path_4" data-name="Path 4" d="M273.786,9.95c1.956,1.179,3.157,7.685,3.157,7.685s-10.236.151-15.807.151h-4.814l-5.846,25.444h-8.94s5.564-27.651,6.877-32.665c.426-1.623,2.916-1.345,7.121-1.345h6.715c4.336,0,9.4-.554,11.536.729M232.167,22.342a5.358,5.358,0,0,0-.945-3.525c-1.046-1.612-2.011-1.987-4.762-2.074-7.767-.244-7.616,5.512-7.616,5.512Zm8.424-6.592C241.73,19.857,239.56,29.5,239.56,29.5s-11.33-.189-17.536,0c-1.93.059-4.239-.21-4.814.688-.808,1.258.3,3.195,1.231,4.013,1.076.942,3.173,1.049,3.927,1.145,5.037.64,15.579.165,15.579.165L236.121,43.6s-14.9.747-22.349-1.031a7.585,7.585,0,0,1-3.782-2.063c-.254-.275-.475-.649-.716-.973a9.035,9.035,0,0,1-1-1.778c-1.7-4.535.2-13.223,2.063-17.879.216-.539.488-1.224.774-1.805.357-.725.66-1.544.945-1.977.192-.3.43-.491.629-.774a11.542,11.542,0,0,1,.746-.945,14.169,14.169,0,0,1,2.407-2.063c3.1-2.325,8.723-4.13,15.473-3.439,2.541.261,6.379,1.169,8.252,3.782a11.543,11.543,0,0,1,1.031,3.095Zm-41-6.561,8.668-.051s-4.831,22.917-7.293,34.092h-9.972c-6.969,0-13.175.863-15.816-4.126-2.562-4.844-.117-12.811,1.031-18.224.812-3.83,2.521-11.66,2.521-11.66l8.981-.082s-2.538,12.189-3.594,18.275c-.378,2.18-1.158,4.233-.343,5.845.773,1.534,1.857,1.644,5.157,1.72,1.046.025,4.47,0,4.47,0L199.588,9.19m-40.573,16.5c.908-3.225,2.231-6.722,2.063-9.628a8.266,8.266,0,0,0-4.47-6.533,11.454,11.454,0,0,0-11.691,2.751c-2.438,2.641-3.263,5.725-4.126,9.972-.642,3.152-1.169,6.481,0,8.939,2.07,4.347,8.524,3.4,15.473,3.439,1.031-2.764,1.884-5.869,2.751-8.941ZM171.05,12.973c.99,7.2-2.809,15.147-5.426,22.057,2.668.241,5.007-.037,5.175.162.175.258-1.789,8.249-2.473,8.27-2.118.055-9.135.113-12.061.113-9.549,0-18.482.622-23.037-4.126a14.975,14.975,0,0,1-3.439-7.565,32.081,32.081,0,0,1,1.032-11.69,35.383,35.383,0,0,1,3.438-8.941c4.013-7,10.992-12.2,22.693-11a21.792,21.792,0,0,1,7.565,2.407c.141.083.633.475.746.543C168.014,4.951,170.52,9.128,171.05,12.973ZM128.8,9.231c-.578,2.63-1.155,5.612-1.764,8.211H117.41c.746-2.881,1.317-5.746,2.063-8.252,3.081,0,5.945.041,9.329.041M117.066,19.85h9.284c-1.214,6.719-3.618,17.556-5.5,25.1-1.179,4.721-1.967,8.166-5.158,10.659-.286.224-.45.117-.688.344-.588.561-3.308,1.211-4.813,1.375a69.209,69.209,0,0,1-8.225-.027c.787-2.878,1.678-6.334,2.38-8.913,7.334.888,7.52-6.045,8.94-12.722.822-3.858,3.311-14.27,3.782-15.817" transform="translate(-51.008 0)" fill="#1a1918" fill-rule="evenodd"/>
      <g id="Group_1" data-name="Group 1" transform="translate(0.981 4.7)">
        <path id="Path_5" data-name="Path 5" d="M44.4,48.968l-.2.516c-3.39,6.6-9.4,10.652-17.966,10.831a25.119,25.119,0,0,1-10.315-2.063A26.646,26.646,0,0,1,3.538,46.561C-.007,39.694-.647,30.142,6.725,23.008c.114,0-.894,1.547-.78,1.547l-.2.66C.43,41.846,16.8,56.1,32.706,54.469a20.9,20.9,0,0,0,11.69-5.5" transform="translate(-0.981 -16.282)" fill="#21609b" fill-rule="evenodd"/>
        <path id="Path_6" data-name="Path 6" d="M48.112,37.395a15.222,15.222,0,0,0,10.659-4.47c-2.166,5.5-8.438,9.032-16.848,7.908C34.881,39.891,28.173,32.8,27.482,25.7c-.505-5.168,1.3-8.252,4.263-11.993a12.55,12.55,0,0,0-1.513,4.428c-1.127,11.179,8.93,19.2,17.879,19.256" transform="translate(-14.324 -11.586)" fill="#21609b" fill-rule="evenodd"/>
        <path id="Path_7" data-name="Path 7" d="M70.028,21.341c-.622,1.427-4.2,4.122-5.787,4.459-6.265,1.335-10.277-1.636-12.379-5.017a15.482,15.482,0,0,1-.993-2.234c-.815-2.771-.44-6.963,1.991-9.133a11.416,11.416,0,0,0-.454,6.017,13.363,13.363,0,0,0,1.657,3.621A9.523,9.523,0,0,0,57.846,22.4a10.033,10.033,0,0,0,1.9.911c1.578.465,4.91,1.689,10.281-1.967" transform="translate(-25.984 -9.417)" fill="#21609b" fill-rule="evenodd"/>
      </g>
    </g>
    <g id="wordpress-blue" transform="translate(66.415 134.107)" clip-path="url(#clip-path)">
      <path id="Path_8" data-name="Path 8" d="M350.924,50.64H325.348v2.713c8,0,9.286,1.715,9.286,11.858V83.5c0,10.144-1.284,12-9.286,12-6.141-.858-10.287-4.144-16-10.431l-6.572-7.143c8.857-1.574,13.572-7.144,13.572-13.432,0-7.857-6.714-13.858-19.288-13.858H271.912v2.713c8,0,9.286,1.715,9.286,11.858V83.5c0,10.144-1.285,12-9.286,12v2.714h28.432V95.5c-8,0-9.286-1.859-9.286-12V78.361h2.429l15.86,19.858h41.578c20.431,0,29.291-10.857,29.291-23.861s-8.86-23.718-29.292-23.718ZM291.059,73.927v-19h5.857c6.429,0,9.287,4.429,9.287,9.572,0,5-2.859,9.429-9.287,9.429Zm60.294,19.862h-1c-5.142,0-5.857-1.284-5.857-7.857V54.927h6.858c14.859,0,17.571,10.857,17.571,19.288C368.926,82.929,366.212,93.789,351.354,93.789ZM192.332,79.216l9.858-29.15c2.859-8.429,1.574-10.856-7.572-10.856V36.351h26.861V39.21c-9,0-11.144,2.142-14.715,12.572l-16.29,48.866h-1.856L174.042,55.925l-14.858,44.722h-1.859L141.467,51.783c-3.429-10.43-5.715-12.572-14-12.572V36.352h31.719v2.859c-8.432,0-10.718,2-7.716,10.856l9.572,29.15,14.43-42.865h2.717l14.146,42.864Zm48.577,20.858c-15.716,0-28.575-11.572-28.575-25.719,0-14,12.859-25.576,28.575-25.576s28.575,11.573,28.575,25.576C269.484,88.5,256.626,100.075,240.909,100.075Zm0-46.862c-13.143,0-17.718,11.856-17.718,21.145,0,9.432,4.574,21.147,17.718,21.147,13.289,0,17.861-11.715,17.861-21.147,0-9.288-4.572-21.145-17.861-21.145Z" transform="translate(25.897 7.385)" fill="#00749a"/>
      <path id="Path_9" data-name="Path 9" d="M372.389,95.361v2.858H339.67V95.361c9.574,0,11.288-2.429,11.288-16.719V55.784c0-14.29-1.714-16.574-11.288-16.574V36.35h29.575c14.715,0,22.863,7.573,22.863,17.719,0,9.859-8.147,17.574-22.863,17.574H361.1v7c0,14.291,1.715,16.719,11.289,16.719Zm-3.144-53.867H361.1V66.356h8.145c8,0,11.715-5.572,11.715-12.287C380.962,47.211,377.247,41.494,369.245,41.494ZM490.262,84.788l-.716,2.571c-1.284,4.715-2.859,6.43-13,6.43h-2c-7.428,0-8.715-1.715-8.715-11.857V75.36c11.145,0,12,1,12,8.429h2.716V62.5h-2.716c0,7.43-.858,8.429-12,8.429v-16h7.857c10.146,0,11.716,1.715,13,6.43l.717,2.714h2.284l-1-13.43H446.682v2.713c8,0,9.287,1.715,9.287,11.858V83.5c0,9.28-1.091,11.618-7.4,11.952-6-.917-10.111-4.186-15.743-10.381l-6.573-7.143c8.859-1.574,13.574-7.144,13.574-13.432,0-7.857-6.715-13.858-19.288-13.858H395.394v2.713c8,0,9.287,1.715,9.287,11.858V83.5c0,10.144-1.285,12-9.287,12v2.714h28.433V95.505c-8,0-9.287-1.859-9.287-12V78.361h2.43l15.859,19.858h58.722l.858-13.429-2.146,0ZM414.539,73.927v-19H420.4c6.43,0,9.288,4.429,9.288,9.572,0,5-2.859,9.429-9.288,9.429Zm104.728,26.147a21.123,21.123,0,0,1-12.859-4.858,10.253,10.253,0,0,0-2.285,4.858h-2.716V80.358h2.858c1.144,9.43,7.715,15,16.145,15,4.572,0,8.288-2.572,8.288-6.857,0-3.714-3.285-6.573-9.144-9.287l-8.145-3.857c-5.716-2.717-10-7.433-10-13.717,0-6.858,6.43-12.715,15.289-12.715a17.894,17.894,0,0,1,11.145,3.715,8.071,8.071,0,0,0,1.858-3.86h2.714V65.644h-3c-1-6.716-4.715-12.288-12.287-12.288-4,0-7.716,2.285-7.716,5.859,0,3.714,3,5.714,9.859,8.857l7.857,3.857c6.859,3.286,9.572,8.575,9.572,12.861,0,9-7.858,15.285-17.43,15.285Zm44.006,0a21.116,21.116,0,0,1-12.859-4.858,10.254,10.254,0,0,0-2.284,4.858h-2.715V80.358h2.857c1.143,9.43,7.714,15,16.145,15,4.572,0,8.287-2.572,8.287-6.857,0-3.714-3.286-6.573-9.145-9.287l-8.146-3.857c-5.715-2.717-10-7.433-10-13.717,0-6.858,6.43-12.715,15.289-12.715a17.9,17.9,0,0,1,11.145,3.715,8.06,8.06,0,0,0,1.855-3.86h2.716V65.644h-3c-1-6.716-4.715-12.288-12.287-12.288-4,0-7.717,2.285-7.717,5.859,0,3.714,3,5.714,9.86,8.857l7.857,3.857c6.858,3.286,9.571,8.575,9.571,12.861,0,9-7.858,15.285-17.429,15.285Z" transform="translate(69.011 7.385)" fill="#464342"/>
      <g id="Group_2" data-name="Group 2">
        <path id="Path_10" data-name="Path 10" d="M8.708,71.937a63.244,63.244,0,0,0,35.637,56.909L14.182,46.2A62.991,62.991,0,0,0,8.708,71.937Zm105.917-3.191c0-7.815-2.807-13.226-5.215-17.439C106.206,46.1,103.2,41.688,103.2,36.48c0-5.813,4.407-11.223,10.617-11.223.28,0,.546.035.821.051a63.219,63.219,0,0,0-95.532,11.9c1.484.045,2.883.075,4.069.075,6.614,0,16.852-.8,16.852-.8a2.613,2.613,0,0,1,.407,5.209s-3.427.4-7.238.6l23.026,68.49,13.839-41.5L60.21,42.291c-3.4-.2-6.631-.6-6.631-.6-3.407-.2-3.008-5.409.4-5.209,0,0,10.442.8,16.655.8,6.613,0,16.852-.8,16.852-.8a2.613,2.613,0,0,1,.405,5.209s-3.433.4-7.237.6L103.5,110.263l6.306-21.076c2.735-8.746,4.815-15.028,4.815-20.441Z" transform="translate(1.769 1.769)" fill="#00749a"/>
        <path id="Path_11" data-name="Path 11" d="M65.388,71.914,46.416,127.041a63.248,63.248,0,0,0,38.86-1.007,5.356,5.356,0,0,1-.45-.871Zm54.374-35.868a48.529,48.529,0,0,1,.426,6.5c0,6.417-1.2,13.63-4.808,22.648L96.065,121.039a63.242,63.242,0,0,0,23.7-84.993Z" transform="translate(9.43 7.323)" fill="#00749a"/>
        <path id="Path_12" data-name="Path 12" d="M73.709,0a73.709,73.709,0,1,0,73.712,73.706A73.792,73.792,0,0,0,73.709,0Zm0,144.038a70.328,70.328,0,1,1,70.325-70.331A70.411,70.411,0,0,1,73.709,144.038Z" fill="#00749a"/>
      </g>
    </g>
    <line id="Line_1" data-name="Line 1" x1="339" y2="339" transform="translate(86.5 87.5)" fill="none" stroke="#b22222" stroke-linecap="round" stroke-width="30"/>
  </g>
</svg>
