<svg xmlns="http://www.w3.org/2000/svg" width="440" height="500" viewBox="0 0 440 500">
  <g id="js" transform="translate(0 -78.735)">
    <path id="Path_17" data-name="Path 17" d="M440,489.9H0L41.25,939.007,219.975,989.9,398.7,939.007Z" transform="translate(0 -411.165)" fill="#e6a329"/>
    <path id="Path_18" data-name="Path 18" d="M887.9,637v425.1l145.88-41.168L1069.271,637Z" transform="translate(-667.553 -522.552)" fill="#f1bf22"/>
    <path id="Path_19" data-name="Path 19" d="M631.522,858.5h-224.3L391.6,1027.217l.324-1.048H582.479l-6.215,71.38-60.8,17.5-61.7-17.77-3.694-43.2H394.071l7.987,86.33,113.409,32.2,113.46-32.2L644.55,970.961H442.315l2.6-56.455H585.225l2.1,32.346h56.505Z" transform="translate(-295.536 -688.595)" fill="#fff"/>
    <path id="Path_20" data-name="Path 20" d="M515.517,858.5H407.224L391.6,1027.217l.324-1.048H515.517V971.136H450.2l2.6-56.455h62.72ZM450.2,1054.072H394.071l7.987,86.28L515.467,1172.5v-57.4l-61.7-17.82Z" transform="translate(-294.861 -688.594)" fill="#ebebeb"/>
  </g>
</svg>
