<svg xmlns="http://www.w3.org/2000/svg" xmlns:xlink="http://www.w3.org/1999/xlink" width="512" height="512" viewBox="0 0 512 512">
  <defs>
    <clipPath id="clip-noJQuery">
      <rect width="512" height="512"/>
    </clipPath>
  </defs>
  <g id="noJQuery" clip-path="url(#clip-noJQuery)">
    <g id="Path_14" data-name="Path 14" fill="#fff">
      <path d="M 256 497 C 123.1121520996094 497 15 388.8878479003906 15 256 C 15 123.1121520996094 123.1121520996094 15 256 15 C 388.8878479003906 15 497 123.1121520996094 497 256 C 497 388.8878479003906 388.8878479003906 497 256 497 Z" stroke="none"/>
      <path d="M 256 30 C 131.3832092285156 30 30 131.3832092285156 30 256 C 30 380.6168212890625 131.3832092285156 482 256 482 C 380.6168212890625 482 482 380.6168212890625 482 256 C 482 131.3832092285156 380.6168212890625 30 256 30 M 256 0 C 397.3848876953125 0 512 114.6151123046875 512 256 C 512 397.3848876953125 397.3848876953125 512 256 512 C 114.6151123046875 512 0 397.3848876953125 0 256 C 0 114.6151123046875 114.6151123046875 0 256 0 Z" stroke="none" fill="#b22222"/>
    </g>
    <g id="jquery-1" transform="translate(48.333 208.81)">
      <path id="Path_3" data-name="Path 3" d="M479.6,8.646l17.376.1s-32.306,43.776-34.944,47.344a20.353,20.353,0,0,0-2.818,3.946c-1.669,3.882-3.382,12.4-3.382,12.4l-15.9.079S442.4,63.632,442.3,58.9c-.089-4.131-2.2-8.256-3.381-12.4-1.2-4.194-2.819-12.4-2.819-12.4h16.346l2.254,9.018L479.6,8.646" transform="translate(-82.148 -1.618)" fill="#1a1918" fill-rule="evenodd"/>
      <path id="Path_4" data-name="Path 4" d="M383.61,16.261c3.207,1.933,5.175,12.6,5.175,12.6s-16.779.247-25.91.247h-7.891L345.4,70.813H330.748s9.12-45.325,11.273-53.543c.7-2.661,4.78-2.2,11.672-2.2H364.7c7.108,0,15.415-.908,18.909,1.195m-68.22,20.313A8.783,8.783,0,0,0,313.84,30.8c-1.714-2.643-3.3-3.258-7.806-3.4-12.732-.4-12.484,9.035-12.484,9.035ZM329.2,25.768c1.866,6.731-1.691,22.545-1.691,22.545s-18.572-.31-28.744,0c-3.163.1-6.949-.344-7.891,1.128-1.325,2.062.484,5.236,2.018,6.577,1.764,1.544,5.2,1.72,6.437,1.876,8.256,1.049,25.537.271,25.537.271L321.87,71.42s-24.42,1.225-36.634-1.691a12.433,12.433,0,0,1-6.2-3.381c-.417-.45-.779-1.064-1.173-1.595a14.811,14.811,0,0,1-1.645-2.915c-2.79-7.434.327-21.675,3.382-29.307.355-.884.8-2.006,1.269-2.959.586-1.188,1.081-2.53,1.549-3.241.315-.49.7-.806,1.032-1.268a18.914,18.914,0,0,1,1.222-1.549,23.226,23.226,0,0,1,3.946-3.381c5.089-3.811,14.3-6.77,25.362-5.637,4.166.428,10.456,1.916,13.527,6.2.823,1.144,1.229,3.415,1.691,5.072ZM261.987,15.014,276.2,14.93s-7.919,37.565-11.955,55.882H247.9c-11.423,0-21.6,1.415-25.925-6.764-4.2-7.941-.191-21,1.691-29.872,1.33-6.279,4.132-19.112,4.132-19.112l14.722-.135s-4.16,19.98-5.891,29.956c-.62,3.573-1.9,6.938-.563,9.58,1.268,2.515,3.044,2.695,8.454,2.819,1.714.041,7.328,0,7.328,0l10.145-42.272M195.48,42.068c1.488-5.286,3.658-11.018,3.382-15.781-.3-5.094-4.57-9.733-7.327-10.708a18.775,18.775,0,0,0-19.163,4.509c-4,4.329-5.349,9.385-6.764,16.346-1.053,5.167-1.916,10.623,0,14.653,3.392,7.125,13.972,5.569,25.363,5.637,1.691-4.531,3.088-9.621,4.509-14.655Zm19.727-20.853c1.622,11.8-4.6,24.828-8.894,36.156,4.374.4,8.207-.061,8.483.265.287.423-2.932,13.521-4.054,13.555-3.471.09-14.974.186-19.771.186-15.652,0-30.295,1.02-37.762-6.763-3.032-3.162-5.129-8.585-5.637-12.4-.845-6.369.214-13.381,1.691-19.162A58,58,0,0,1,154.9,18.4c6.577-11.48,18.019-20,37.2-18.035a35.721,35.721,0,0,1,12.4,3.945c.23.135,1.038.778,1.222.891C210.23,8.066,214.339,14.913,215.207,21.215Zm-69.252-6.133c-.947,4.312-1.893,9.2-2.891,13.46H127.283c1.223-4.723,2.159-9.418,3.382-13.527,5.05,0,9.745.067,15.291.067M126.719,32.487h15.218c-1.99,11.013-5.93,28.778-9.018,41.144-1.933,7.739-3.224,13.386-8.454,17.472-.468.367-.738.192-1.128.564-.964.919-5.422,1.985-7.89,2.254-4.013.435-8.55.057-13.482-.045,1.291-4.717,2.751-10.382,3.9-14.61,12.022,1.455,12.326-9.908,14.654-20.853,1.347-6.324,5.428-23.39,6.2-25.926" transform="translate(-19.065 0)" fill="#1a1918" fill-rule="evenodd"/>
      <g id="Group_1" data-name="Group 1" transform="translate(0.981 7.654)">
        <path id="Path_5" data-name="Path 5" d="M72.146,65.561l-.326.845c-5.557,10.821-15.4,17.46-29.449,17.753a41.175,41.175,0,0,1-16.909-3.381A43.678,43.678,0,0,1,5.172,61.615C-.639,50.359-1.687,34.7,10.4,23.008c.187,0-1.466,2.536-1.279,2.536l-.333,1.082C.077,53.887,26.9,77.25,52.983,74.578a34.256,34.256,0,0,0,19.162-9.017" transform="translate(-0.981 -11.983)" fill="#21609b" fill-rule="evenodd"/>
        <path id="Path_6" data-name="Path 6" d="M61.352,52.533a24.952,24.952,0,0,0,17.473-7.327c-3.551,9.013-13.831,14.805-27.617,12.963-11.543-1.545-22.539-13.16-23.672-24.8-.828-8.471,2.124-13.526,6.989-19.659a20.571,20.571,0,0,0-2.48,7.259C30.2,39.293,46.682,52.436,61.352,52.533" transform="translate(-5.968 -10.228)" fill="#21609b" fill-rule="evenodd"/>
        <path id="Path_7" data-name="Path 7" d="M82.523,28.963c-1.02,2.34-6.892,6.757-9.485,7.31-10.269,2.188-16.846-2.682-20.291-8.223a25.376,25.376,0,0,1-1.628-3.663c-1.336-4.543-.722-11.414,3.263-14.97a18.713,18.713,0,0,0-.744,9.863,21.9,21.9,0,0,0,2.717,5.935c2.124,3.088,3.471,3.839,6.2,5.479a16.446,16.446,0,0,0,3.117,1.493c2.587.762,8.049,2.768,16.853-3.224" transform="translate(-10.326 -9.417)" fill="#21609b" fill-rule="evenodd"/>
      </g>
    </g>
    <line id="Line_1" data-name="Line 1" x1="339" y2="339" transform="translate(86.5 87.5)" fill="none" stroke="#b22222" stroke-linecap="round" stroke-width="30"/>
  </g>
</svg>
